<svg width="108" height="108" viewBox="0 0 108 108" fill="none" xmlns="http://www.w3.org/2000/svg">
<g clip-path="url(#clip0_22_9)">
<path d="M46 4.6188C50.9504 1.76068 57.0496 1.76068 62 4.6188L92.7654 22.3812C97.7158 25.2393 100.765 30.5214 100.765 36.2376V71.7624C100.765 77.4786 97.7158 82.7607 92.7654 85.6188L62 103.381C57.0496 106.239 50.9504 106.239 46 103.381L15.2346 85.6188C10.2842 82.7607 7.23463 77.4786 7.23463 71.7624V36.2376C7.23463 30.5214 10.2842 25.2393 15.2346 22.3812L46 4.6188Z" fill="url(#paint0_radial_22_9)"/>
<path fill-rule="evenodd" clip-rule="evenodd" d="M14.2358 38.3908C15.7718 45.1998 17.3236 50.8751 18.8961 55.5537C20.6219 60.6884 22.4379 64.8224 24.4064 67.9999C26.3479 71.1339 28.6949 73.7552 31.6645 75.248C38.55 78.7093 44.5772 74.5753 48.1796 71.0587C51.903 67.4239 55.4783 62.1727 58.6227 57.5545L58.8393 57.2366C62.2595 52.2143 65.2219 47.9087 68.0269 45.1704C69.4085 43.8217 70.3696 43.2468 70.9192 43.0487C71.2029 42.9465 71.2401 42.9679 71.3086 43.0075C71.3191 43.0136 71.3306 43.0202 71.3436 43.0268C71.6772 43.1944 72.6322 43.8633 73.9909 46.0565C75.3227 48.2061 76.8055 51.4363 78.3765 56.1102C80.4854 62.3842 82.6359 70.8996 84.8108 82.2045C84.0532 82.6486 83.231 83.1237 82.3369 83.6398L65.5 93.3602C59.8876 96.601 57.0814 98.2211 54 98.2211C50.9186 98.2211 48.1124 96.601 42.5 93.3602L25.6628 83.6398C20.0505 80.399 17.2443 78.779 15.7035 76.1105C14.1628 73.4419 14.1628 70.2016 14.1628 63.7209V44.279C14.1628 41.9342 14.1628 40.0136 14.2358 38.3908ZM23.3448 25.7046C25.526 37.0546 27.6824 45.5989 29.7969 51.8898C31.3678 56.5637 32.8506 59.7938 34.1824 61.9435C35.5411 64.1367 36.496 64.8055 36.8297 64.9732C36.8428 64.9798 36.8541 64.9864 36.8648 64.9925C36.9333 65.0321 36.9704 65.0535 37.254 64.9513C37.8037 64.7531 38.7649 64.1783 40.1464 62.8296C42.9514 60.0913 45.9138 55.7857 49.3341 50.7634L49.5506 50.4454C52.695 45.8272 56.2704 40.576 59.9936 36.9413C63.5961 33.4246 69.6234 29.2907 76.5088 32.752C79.4784 34.2448 81.8251 36.8661 83.7672 40C85.7351 43.1776 87.5514 47.3116 89.2771 52.4463C90.7994 56.9744 92.3016 62.4363 93.7894 68.9561C93.8369 67.4761 93.8369 65.7587 93.8369 63.7209V44.279C93.8369 37.7984 93.8369 34.5581 92.2966 31.8895C90.7556 29.2209 87.9496 27.6008 82.3369 24.3605L65.5 14.6395C59.8876 11.3992 57.0814 9.77905 54 9.77905C50.9186 9.77905 48.1124 11.3992 42.5 14.6395L25.6628 24.3605C24.83 24.8413 24.059 25.2864 23.3448 25.7046Z" fill="url(#paint1_radial_22_9)"/>
</g>
<defs>
<radialGradient id="paint0_radial_22_9" cx="0" cy="0" r="1" gradientUnits="userSpaceOnUse" gradientTransform="translate(25.5 27.5) rotate(44.6506) scale(115.968)">
<stop stop-color="#67BFFF"/>
<stop offset="1" stop-color="#357CAF"/>
</radialGradient>
<radialGradient id="paint1_radial_22_9" cx="0" cy="0" r="1" gradientUnits="userSpaceOnUse" gradientTransform="translate(31 30.3031) rotate(48.3997) scale(99.7276 89.8407)">
<stop stop-color="#2486A5"/>
<stop offset="1" stop-color="#062028"/>
</radialGradient>
<clipPath id="clip0_22_9">
<rect width="108" height="108" rx="32" fill="white"/>
</clipPath>
</defs>
</svg>
