<svg width="161" height="64" viewBox="0 0 161 64" xmlns="http://www.w3.org/2000/svg">
<path fill-rule="evenodd" clip-rule="evenodd" d="M4.29252 23.1067C5.21245 26.9825 6.14081 30.2871 7.07982 33.0809C8.2804 36.6528 9.54365 39.5287 10.9131 41.7391C12.2637 43.9192 13.8964 45.7427 15.9622 46.7812C20.752 49.1891 24.9449 46.3133 27.451 43.8669C30.0411 41.3384 32.5283 37.6854 34.7157 34.4727L34.8663 34.2515C37.2457 30.7577 39.3064 27.7625 41.2577 25.8577C42.2188 24.9194 42.8875 24.5195 43.2698 24.3817C43.4672 24.3106 43.493 24.3255 43.5406 24.353L43.5407 24.3531C43.548 24.3573 43.5559 24.3619 43.565 24.3665C43.7971 24.4831 44.4614 24.9484 45.4066 26.4741C46.3331 27.9695 47.3646 30.2165 48.4574 33.4679C49.9407 37.881 51.4536 43.8879 52.984 51.8828C52.585 52.1151 52.1618 52.3594 51.7127 52.6187L39.9999 59.3811C36.0957 61.6352 34.1435 62.7623 31.9999 62.7623C29.8563 62.7623 27.9042 61.6352 23.9999 59.3811L12.2871 52.6187C8.38284 50.3646 6.4307 49.2375 5.35891 47.3811C4.28711 45.5247 4.28711 43.2705 4.28711 38.7623V25.2375C4.28711 24.464 4.28711 23.7568 4.29252 23.1067ZM10.2254 12.5805C11.7255 20.3446 13.2084 26.2047 14.6629 30.5321C15.7558 33.7835 16.7873 36.0305 17.7137 37.5259C18.6589 39.0516 19.3233 39.5169 19.5553 39.6335C19.5645 39.6381 19.5724 39.6427 19.5797 39.647C19.6274 39.6745 19.6532 39.6894 19.8505 39.6183C20.2329 39.4805 20.9015 39.0806 21.8626 38.1423C23.8139 36.2375 25.8747 33.2423 28.254 29.7485L28.4047 29.5273C30.5921 26.3146 33.0793 22.6616 35.6694 20.1331C38.1754 17.6867 42.3683 14.8109 47.1582 17.2188C49.224 18.2573 50.8567 20.0808 52.2073 22.2609C53.5767 24.4713 54.84 27.3472 56.0406 30.9191C57.2327 34.4659 58.4076 38.8362 59.57 44.1532C59.7127 42.7793 59.7127 41.0648 59.7127 38.7623V25.2375C59.7127 20.7292 59.7127 18.4751 58.6409 16.6187C57.5691 14.7623 55.617 13.6352 51.7127 11.3811L39.9999 4.61869C36.0957 2.36456 34.1435 1.23749 31.9999 1.23749C29.8563 1.23749 27.9042 2.36456 23.9999 4.61869L12.2871 11.3811C11.5289 11.8189 10.8443 12.2141 10.2254 12.5805Z" fill="currentColor"/>
<path d="M93.25 44.45C91.6167 44.45 90.0833 44.15 88.65 43.55C87.2167 42.9333 85.95 42.0917 84.85 41.025C83.7667 39.9583 82.9167 38.7167 82.3 37.3C81.7 35.8833 81.4 34.3667 81.4 32.75C81.4 31.1333 81.7 29.6167 82.3 28.2C82.9167 26.7833 83.7667 25.5417 84.85 24.475C85.95 23.4083 87.2167 22.575 88.65 21.975C90.0833 21.3583 91.6167 21.05 93.25 21.05C94.7667 21.05 96.1917 21.3083 97.525 21.825C98.8583 22.325 100.05 23.0417 101.1 23.975L99.925 28.75C99.275 27.6667 98.3833 26.7667 97.25 26.05C96.1167 25.3333 94.8167 24.975 93.35 24.975C91.9333 24.975 90.65 25.325 89.5 26.025C88.35 26.725 87.4333 27.6583 86.75 28.825C86.0833 29.9917 85.75 31.3 85.75 32.75C85.75 34.1833 86.0833 35.4917 86.75 36.675C87.4333 37.8417 88.35 38.775 89.5 39.475C90.65 40.175 91.9333 40.525 93.35 40.525C94.8 40.525 96.0917 40.1667 97.225 39.45C98.375 38.7167 99.275 37.8167 99.925 36.75L101.1 41.525C100.05 42.4417 98.8583 43.1583 97.525 43.675C96.1917 44.1917 94.7667 44.45 93.25 44.45ZM109.563 44.45C108.513 44.45 107.521 44.1917 106.587 43.675C105.654 43.1583 104.904 42.4167 104.338 41.45C103.771 40.4667 103.488 39.275 103.488 37.875V29H107.413V37.35C107.413 38.2833 107.688 39.1083 108.237 39.825C108.804 40.5417 109.588 40.9 110.588 40.9C111.421 40.9 112.163 40.6 112.813 40C113.463 39.4 113.788 38.5417 113.788 37.425V29H117.713V44H114.137V42.2C113.604 42.9333 112.937 43.4917 112.137 43.875C111.337 44.2583 110.479 44.45 109.563 44.45ZM129.651 44.35C128.684 44.35 127.784 44.175 126.951 43.825C126.134 43.475 125.426 43 124.826 42.4V44H121.401V20H125.326V30.15C125.909 29.6833 126.559 29.3167 127.276 29.05C128.009 28.7833 128.801 28.65 129.651 28.65C131.051 28.65 132.317 29.0083 133.451 29.725C134.584 30.425 135.484 31.3667 136.151 32.55C136.834 33.7333 137.176 35.05 137.176 36.5C137.176 37.9333 136.834 39.25 136.151 40.45C135.484 41.6333 134.584 42.5833 133.451 43.3C132.317 44 131.051 44.35 129.651 44.35ZM129.176 40.875C129.976 40.875 130.692 40.675 131.326 40.275C131.976 39.875 132.492 39.35 132.876 38.7C133.259 38.0333 133.451 37.3 133.451 36.5C133.451 35.7 133.259 34.975 132.876 34.325C132.492 33.6583 131.976 33.125 131.326 32.725C130.692 32.325 129.984 32.125 129.201 32.125C128.401 32.125 127.676 32.325 127.026 32.725C126.392 33.125 125.884 33.6583 125.501 34.325C125.117 34.975 124.926 35.7 124.926 36.5C124.926 37.3 125.117 38.0333 125.501 38.7C125.884 39.35 126.392 39.875 127.026 40.275C127.676 40.675 128.392 40.875 129.176 40.875ZM140.059 44V29H143.984V44H140.059ZM142.034 26.7C141.417 26.7 140.892 26.4917 140.459 26.075C140.042 25.6417 139.834 25.1167 139.834 24.5C139.834 23.8667 140.042 23.3417 140.459 22.925C140.892 22.5083 141.417 22.3 142.034 22.3C142.667 22.3 143.192 22.5083 143.609 22.925C144.025 23.3417 144.234 23.8667 144.234 24.5C144.234 25.1167 144.025 25.6417 143.609 26.075C143.192 26.4917 142.667 26.7 142.034 26.7ZM154.923 44.45C153.439 44.45 152.081 44.0917 150.848 43.375C149.631 42.6583 148.664 41.7 147.948 40.5C147.231 39.2833 146.873 37.95 146.873 36.5C146.873 35.0333 147.231 33.7 147.948 32.5C148.664 31.3 149.631 30.3417 150.848 29.625C152.081 28.9083 153.439 28.55 154.923 28.55C155.973 28.55 156.964 28.725 157.898 29.075C158.831 29.425 159.656 29.9333 160.373 30.6L159.323 34.75C158.906 34.0333 158.331 33.4167 157.598 32.9C156.864 32.3667 156.014 32.1 155.048 32.1C154.214 32.1 153.464 32.3 152.798 32.7C152.148 33.1 151.631 33.6333 151.248 34.3C150.864 34.95 150.673 35.6833 150.673 36.5C150.673 37.3 150.864 38.0333 151.248 38.7C151.631 39.3667 152.148 39.9 152.798 40.3C153.464 40.7 154.214 40.9 155.048 40.9C156.014 40.9 156.864 40.6417 157.598 40.125C158.331 39.5917 158.906 38.9667 159.323 38.25L160.373 42.4C159.656 43.0667 158.831 43.575 157.898 43.925C156.964 44.275 155.973 44.45 154.923 44.45Z" fill="currentColor"/>
</svg>
