<svg width="32" height="32" viewBox="0 0 32 32" fill="none" xmlns="http://www.w3.org/2000/svg">
<path fill-rule="evenodd" clip-rule="evenodd" d="M2.14355 11.542C2.60439 13.4848 3.06947 15.1408 3.53988 16.5404C4.14017 18.3264 4.77179 19.7643 5.4565 20.8695C6.13182 21.9596 6.94814 22.8714 7.98104 23.3906C10.376 24.5946 12.4724 23.1566 13.7254 21.9334C15.0205 20.6692 16.2641 18.8427 17.3578 17.2364L17.4331 17.1258C18.6227 15.3789 19.6531 13.8813 20.6288 12.9288C21.1093 12.4597 21.4436 12.2598 21.6348 12.1909C21.7334 12.1553 21.7464 12.1628 21.7702 12.1765C21.7739 12.1786 21.7778 12.1809 21.7824 12.1832C21.8984 12.2416 22.2306 12.4742 22.7032 13.237C23.1664 13.9847 23.6821 15.1083 24.2286 16.734C24.9703 18.9407 25.7268 21.9445 26.492 25.9424L19 30.268C17.5359 31.1133 16.8038 31.5359 16 31.5359C15.1961 31.5359 14.4641 31.1133 13 30.268L5.14355 25.7321C3.67945 24.8868 2.9474 24.4641 2.54548 23.768C2.14355 23.0718 2.14355 22.2265 2.14355 20.5359V11.542ZM5.11194 6.28622C5.86222 10.1703 6.60396 13.1016 7.33145 15.266C7.87786 16.8917 8.39361 18.0152 8.85683 18.763C9.32944 19.5258 9.6616 19.7584 9.77763 19.8168C9.78219 19.8191 9.78614 19.8214 9.78983 19.8235C9.81365 19.8372 9.82655 19.8447 9.92521 19.8091C10.1164 19.7402 10.4507 19.5403 10.9312 19.0712C11.9069 18.1187 12.9373 16.6211 14.1269 14.8742L14.2022 14.7636C15.2959 13.1573 16.5395 11.3308 17.8346 10.0666C19.0876 8.84337 21.184 7.40544 23.579 8.60939C24.6119 9.12864 25.4282 10.0404 26.1035 11.1305C26.7882 12.2357 27.4198 13.6736 28.0201 15.4596C28.6305 17.2756 29.2319 19.5233 29.8267 22.269C29.8564 21.8059 29.8564 21.2453 29.8564 20.5359V11.4641C29.8564 9.77352 29.8564 8.92822 29.4544 8.23207C29.0525 7.53592 28.3205 7.11327 26.8564 6.26797L19 1.73207C17.5359 0.886771 16.8038 0.464121 16 0.464121C15.1961 0.464121 14.4641 0.886771 13 1.73207L5.14355 6.26797C5.13298 6.27408 5.12244 6.28016 5.11194 6.28622Z" fill="currentColor"/>
</svg>
